<svg width="1134" height="1134" xmlns="http://www.w3.org/2000/svg" xmlns:xlink="http://www.w3.org/1999/xlink" overflow="hidden"><defs><clipPath id="clip0"><rect x="0" y="0" width="1134" height="1134"/></clipPath></defs><g clip-path="url(#clip0)"><rect x="0" y="0" width="1134" height="1134" fill="#FFFFFF"/><path d="M225 567C225 378.119 378.119 225 567 225 755.881 225 909 378.119 909 567 909 755.881 755.881 909 567 909 378.119 909 225 755.881 225 567Z" fill="#61D8FF" fill-rule="evenodd"/><path d="M0 567C-7.21867e-14 253.855 253.855-7.21867e-14 567-1.44373e-13 880.145-2.88747e-13 1134 253.855 1134 567 1134 880.145 880.145 1134 567 1134 253.855 1134-3.60933e-13 880.145 0 567ZM108.331 567C108.331 820.316 313.684 1025.67 567 1025.67 820.316 1025.67 1025.67 820.316 1025.67 567 1025.67 313.684 820.316 108.331 567 108.331 313.684 108.331 108.331 313.684 108.331 567Z" fill-rule="evenodd"/></g></svg>